<?xml version="1.0" standalone="no"?>
<!DOCTYPE svg PUBLIC "-//W3C//DTD SVG 20010904//EN"
 "http://www.w3.org/TR/2001/REC-SVG-20010904/DTD/svg10.dtd">
<svg version="1.0" xmlns="http://www.w3.org/2000/svg"
 width="848.000000pt" height="848.000000pt" viewBox="0 0 848.000000 848.000000"
 preserveAspectRatio="xMidYMid meet">
<metadata>
Created by potrace 1.14, written by Peter Selinger 2001-2017
</metadata>
<g transform="translate(0.000000,848.000000) scale(0.100000,-0.100000)"
fill="#000000" stroke="none">
<path d="M0 6295 l0 -1565 988 0 988 0 -1 -452 c-1 -418 -4 -479 -30 -633 -17
-106 -94 -355 -130 -425 -8 -14 -32 -62 -54 -108 -44 -89 -128 -225 -142 -230
-5 -2 -9 -8 -9 -14 0 -15 -111 -147 -197 -235 -109 -110 -213 -193 -348 -279
-88 -56 -259 -144 -280 -144 -7 0 -15 -3 -17 -8 -2 -6 -190 -72 -223 -78 -5
-1 -39 -9 -75 -18 -36 -8 -78 -17 -95 -20 -16 -3 -40 -8 -53 -10 -28 -6 -159
-17 -232 -20 l-55 -2 -2 -710 -2 -710 47 -4 c26 -2 146 -4 267 -4 194 0 260 3
405 17 31 4 137 19 150 22 3 1 30 5 60 9 30 5 64 11 75 13 11 3 47 11 80 18
176 39 428 118 572 181 17 8 34 14 37 14 3 0 43 17 88 39 46 21 90 41 98 45
39 17 247 133 282 157 14 11 31 19 37 19 6 0 11 5 11 10 0 6 4 10 10 10 9 0
99 58 110 71 3 3 15 12 28 18 13 7 31 19 40 27 53 45 91 74 97 74 4 0 13 6 19
13 6 8 49 46 96 84 124 103 341 321 425 428 17 21 35 43 40 49 67 68 360 514
360 547 0 4 3 11 8 15 16 16 120 242 171 373 73 185 165 505 182 634 2 15 6
39 9 55 3 15 8 43 11 62 2 19 7 51 10 70 3 19 7 53 9 75 2 22 7 69 11 105 3
36 7 946 8 2023 l2 1957 -1943 0 -1943 0 0 -1565z"/>
<path d="M4594 6295 l0 -1565 989 0 988 0 -4 -462 c-4 -438 -6 -496 -22 -593
-15 -91 -71 -299 -94 -350 -5 -11 -24 -56 -42 -100 -29 -69 -64 -140 -99 -195
-5 -8 -19 -33 -31 -55 -11 -22 -24 -42 -28 -45 -3 -3 -23 -29 -43 -59 -91
-133 -273 -320 -408 -419 -47 -34 -89 -66 -95 -70 -28 -21 -142 -87 -205 -117
-99 -49 -239 -108 -260 -110 -3 0 -11 -4 -17 -8 -7 -5 -13 -6 -13 -3 0 3 -15
-1 -32 -9 -18 -7 -36 -14 -40 -14 -5 -1 -10 -2 -13 -2 -3 -1 -8 -2 -12 -3 -22
-6 -122 -26 -148 -31 -16 -3 -41 -7 -55 -10 -36 -7 -188 -19 -237 -19 -30 1
-42 -3 -45 -15 -2 -9 -4 -329 -3 -711 l0 -695 28 0 c15 1 27 -2 27 -6 0 -8
531 -4 580 5 19 3 60 8 90 11 76 7 116 12 153 21 18 4 43 8 57 9 14 0 31 5 38
9 7 4 12 5 12 3 0 -3 17 -1 38 4 20 5 47 12 60 15 272 58 561 162 827 297 66
33 130 65 142 71 13 6 23 14 23 19 0 4 5 7 10 7 6 0 36 16 66 35 30 19 59 35
65 35 5 0 12 7 15 15 4 8 12 15 19 15 8 0 20 6 27 13 23 22 118 87 127 87 5 0
11 4 13 8 2 4 30 28 63 54 33 25 71 55 85 67 14 12 48 41 75 64 54 45 295 284
335 332 13 17 48 58 77 92 29 34 53 67 53 72 0 5 4 11 8 13 10 4 102 129 157
213 21 33 47 72 56 87 48 70 169 296 169 315 0 6 3 13 8 15 10 4 52 95 52 113
0 8 5 15 10 15 6 0 10 7 10 15 0 8 9 34 20 58 16 34 103 272 100 272 -2 0 5
23 18 65 14 43 52 188 56 215 2 11 11 61 21 110 9 50 19 97 20 106 6 31 14 84
19 139 4 30 9 73 13 95 4 22 8 937 10 2033 l4 1992 -1944 0 -1943 0 0 -1565z"/>
</g>
</svg>
