<svg xmlns="http://www.w3.org/2000/svg" viewBox="0 0 500 400">
<defs>
<style>.cls-1,.cls-3{fill:#c40630;}.cls-2{fill:#cecece;}.cls-3{font-size:99px;}.cls-3,.cls-4,.cls-5,.cls-8{font-family:IBMPlexSansArabic-Medium, IBM Plex Sans Arabic;font-weight:500;}.cls-4{font-size:20.58px;}.cls-4,.cls-5,.cls-7,.cls-8{fill:#333;}.cls-5{font-size:18.52px;}.cls-10,.cls-6{fill:none;stroke-miterlimit:10;}.cls-6{stroke:#333;stroke-width:2px;}.cls-8{font-size:18px;}.cls-9{fill:#fff;}.cls-10{stroke:#c40630;stroke-width:1.25px;}.cls-11{fill:#c40630;}
</style>
</defs><g id="Layer_2" data-name="Layer 2"><g id="Layer_1-2" data-name="Layer 1">
<path class="cls-1" d="M365.15.45l134,134,0-102.71C500,21.65,488.33,0,464.05,0,430.39.46,365.15.45,365.15.45Z"/>
<path class="cls-2" d="M465.35,1A33.68,33.68,0,0,1,499,34.65v330.7A33.68,33.68,0,0,1,465.35,399H34.65A33.68,33.68,0,0,1,1,365.35V34.65A33.68,33.68,0,0,1,34.65,1h430.7m0-1H34.65A34.65,34.65,0,0,0,0,34.65v330.7A34.65,34.65,0,0,0,34.65,400h430.7A34.65,34.65,0,0,0,500,365.35V34.65A34.65,34.65,0,0,0,465.35,0Z"/>
<text class="cls-3" transform="translate(215.06 142.48)">789
</text>
<text class="cls-4" transform="translate(110.68 143.18)">1000
</text>
<text class="cls-5" transform="translate(169.27 142.42)">MAD
</text>
<line class="cls-6" x1="107.68" y1="136.25" x2="162.98" y2="136.25"/>
<line class="cls-7" x1="107.68" y1="136.25" x2="162.98" y2="136.25"/>
<text class="cls-8" transform="translate(135.42 193.19)">12 weeks Training
<tspan x="0" y="27">2h Session/week 
</tspan><tspan x="0" y="54">5 Real Projets 
</tspan>
<tspan x="0" y="81">Char7 b&apos;Darija !
</tspan><tspan x="0" y="108">Certifcate of Completion
</tspan>
<tspan x="0" y="135">Group WhatsApp with the tutor
</tspan>
</text>
<path class="cls-9" d="M428.44,22.32a6.65,6.65,0,0,1-1.74-2.59,7.17,7.17,0,0,1-.37-2.71h2.48a5.18,5.18,0,0,0,.27,2,4.36,4.36,0,0,0,1.11,1.69,2.79,2.79,0,0,0,1.69.91,1.77,1.77,0,0,0,1.43-.59,1.63,1.63,0,0,0,.51-1.09,2.64,2.64,0,0,0-.64-1.5l-.81-1.07c-1.69-2.26-1.75-4.2-.16-5.83a4,4,0,0,1,1.44-1,3.6,3.6,0,0,1,1.63-.23,4.76,4.76,0,0,1,1.72.51,7.38,7.38,0,0,1,1.72,1.27,6.93,6.93,0,0,1,1.62,2.3,5.45,5.45,0,0,1,.37,2.51l-2.48,0a4.06,4.06,0,0,0-.19-1.62A4,4,0,0,0,437,13.73a2.88,2.88,0,0,0-1.53-.89,1.42,1.42,0,0,0-1.25.46,1.44,1.44,0,0,0-.48,1.17,3.25,3.25,0,0,0,.67,1.43l.77,1.08a5.91,5.91,0,0,1,1.3,3.15,3.53,3.53,0,0,1-1.16,2.65,4.61,4.61,0,0,1-1.52,1.06,3.81,3.81,0,0,1-1.71.29,4.42,4.42,0,0,1-1.81-.49A7.07,7.07,0,0,1,428.44,22.32Z"/>
<path class="cls-9" d="M445.8,19.37l-6,6.16a4,4,0,0,0-1.27,2.2,2.53,2.53,0,0,0,1,2.08,2.54,2.54,0,0,0,2.1.89,4,4,0,0,0,2.17-1.32l6-6.16L451.63,25,445.88,31a10.67,10.67,0,0,1-2.06,1.7,4.46,4.46,0,0,1-2,.69,3.71,3.71,0,0,1-2-.38,7.74,7.74,0,0,1-2-1.49,7.6,7.6,0,0,1-1.54-2,3.72,3.72,0,0,1-.42-1.93,4.45,4.45,0,0,1,.63-2,11.39,11.39,0,0,1,1.66-2.1l5.75-5.92Z"/>
<path class="cls-9" d="M458.74,37.43l-.06,0-2.33.84L450.62,40l1.63-5.78.77-2.35-.06-.06L446,39l-1.79-1.75,9.74-10,2.14,2.08-2.19,7.39.06.06,7.3-2.43,2,2-9.74,10-1.8-1.74Z"/>
<path class="cls-9" d="M470.45,48.82l-.05-.06-2.33.84-5.74,1.8L464,45.61l.77-2.35-.06,0-7,7.19-1.8-1.74,9.75-10,2.13,2.07-2.18,7.4.05.06,7.3-2.43,2.06,2-9.74,10L463.46,56Z"/>
<path class="cls-9" d="M467.61,60.05l9.74-10L484,56.44l-1.63,1.68-4.71-4.58L475.26,56,479.42,60l-1.63,1.68-4.17-4.05-2.48,2.56,4.71,4.58-1.63,1.68Z"/>
<path class="cls-9" d="M478.12,70.26l-1.89-1.84,9.74-10,4.52,4.4a4.79,4.79,0,0,1,1,1.42,3.52,3.52,0,0,1,.32,1.52,4,4,0,0,1-.37,1.56,5.36,5.36,0,0,1-1,1.48,4.56,4.56,0,0,1-2.2,1.32,3.53,3.53,0,0,1-2.43-.29l-1.91,6.07-2.11-2.05,1.88-5.68-1.79-1.74Zm7.75-3.08a1.69,1.69,0,0,0,1.15.54,1.53,1.53,0,0,0,1.13-.53l.64-.66a1.5,1.5,0,0,0,.49-1.14,1.71,1.71,0,0,0-.58-1.13l-2.44-2.37-2.83,2.91Z"/>
<path class="cls-9" d="M420.35,42l9.74-10,4.51,4.38a4.59,4.59,0,0,1,1,1.43,3.64,3.64,0,0,1,.32,1.54,3.79,3.79,0,0,1-.37,1.56,5.3,5.3,0,0,1-1,1.46,5.18,5.18,0,0,1-1.44,1.07,3.72,3.72,0,0,1-1.54.41,3.67,3.67,0,0,1-1.55-.28,4.61,4.61,0,0,1-1.46-1L426,40.06l-3.71,3.82Zm7.2-3.62L430,40.8a1.71,1.71,0,0,0,1.15.54,1.52,1.52,0,0,0,1.13-.53l.64-.66A1.5,1.5,0,0,0,433.4,39a1.66,1.66,0,0,0-.58-1.13l-2.44-2.37Z"/>
<path class="cls-9" d="M431.45,52.83,429.55,51l9.75-10,4.52,4.4a4.43,4.43,0,0,1,1,1.41,3.45,3.45,0,0,1,.32,1.53,4,4,0,0,1-.36,1.55,5.26,5.26,0,0,1-1,1.48,4.63,4.63,0,0,1-2.19,1.33,3.51,3.51,0,0,1-2.44-.3l-1.91,6.08-2.11-2.06L437,50.71,435.2,49Zm7.74-3.09a1.64,1.64,0,0,0,1.15.54,1.48,1.48,0,0,0,1.13-.53l.65-.66a1.5,1.5,0,0,0,.49-1.14,1.71,1.71,0,0,0-.58-1.12l-2.44-2.38-2.84,2.92Z"/>
<path class="cls-9" d="M438.67,59.85l1.48-1.53,1.32,1.29,6.79-7-1.33-1.29,1.48-1.52L453,54.25l-1.48,1.52-1.34-1.3-6.78,7,1.34,1.3-1.48,1.52Z"/>
<path class="cls-9" d="M448.89,70.11a6.86,6.86,0,0,1-1.48-2.06,5.06,5.06,0,0,1-.42-2.3,6.05,6.05,0,0,1,.69-2.44,10.32,10.32,0,0,1,1.85-2.52A10.73,10.73,0,0,1,452,58.84a6.46,6.46,0,0,1,2.47-.81,5.07,5.07,0,0,1,2.35.32A6.08,6.08,0,0,1,459,59.74a5.71,5.71,0,0,1,1.69,2.75,5.51,5.51,0,0,1-.27,3.12l-2.46-.72a3.21,3.21,0,0,0,.35-1.76,2.79,2.79,0,0,0-.94-1.71A2.93,2.93,0,0,0,455,60.5a4.08,4.08,0,0,0-2.58,1.4l-1.54,1.58a4,4,0,0,0-1.32,2.61,3,3,0,0,0,1,2.34,2.87,2.87,0,0,0,1.83.88,3.65,3.65,0,0,0,1.89-.37l.66,2.4a6.19,6.19,0,0,1-3.15.33A5.41,5.41,0,0,1,448.89,70.11Z"/>
<path class="cls-9" d="M454.38,75.11l9.74-10,6.61,6.42-1.63,1.68-4.71-4.58L462,71l4.16,4-1.63,1.68-4.16-4-2.49,2.55,4.71,4.58L461,81.53Z"/>
<circle class="cls-10" cx="108.14" cy="187.48" r="9.25"/>
<path class="cls-11" d="M112.67,185.29l-5.44,5.48a.84.84,0,0,1-1,0c-.53-.45-2.75-2.8-2.75-2.8a.84.84,0,0,1,1.12-1,26.12,26.12,0,0,1,2.17,2.14l4.85-4.87C112.22,184,113,184.4,112.67,185.29Z"/>
<circle class="cls-10" cx="108.14" cy="214.55" r="9.25"/>
<path class="cls-11" d="M112.67,212.36l-5.44,5.48a.84.84,0,0,1-1,0c-.53-.45-2.75-2.8-2.75-2.8a.84.84,0,0,1,1.12-1,26.12,26.12,0,0,1,2.17,2.14l4.85-4.87C112.22,211.11,113,211.47,112.67,212.36Z"/>
<circle class="cls-10" cx="107.95" cy="241.62" r="9.25"/>
<path class="cls-11" d="M112.48,239.43l-5.43,5.48a.86.86,0,0,1-1,0c-.53-.45-2.75-2.8-2.75-2.8a.85.85,0,0,1,1.12-1,27.16,27.16,0,0,1,2.18,2.14l4.84-4.87C112,238.18,112.78,238.54,112.48,239.43Z"/>
<circle class="cls-10" cx="107.95" cy="268.69" r="9.25"/>
<path class="cls-11" d="M112.48,266.5,107.05,272a.86.86,0,0,1-1,0c-.53-.45-2.75-2.79-2.75-2.79a.84.84,0,0,1,1.12-1,25.38,25.38,0,0,1,2.18,2.14l4.84-4.88C112,265.25,112.78,265.61,112.48,266.5Z"/>
<circle class="cls-10" cx="108.18" cy="294.79" r="9.25"/>
<path class="cls-11" d="M112.71,292.59l-5.43,5.49a.87.87,0,0,1-1,0c-.53-.46-2.75-2.8-2.75-2.8a.84.84,0,0,1,1.12-1,27.16,27.16,0,0,1,2.18,2.14l4.84-4.88C112.26,291.34,113,291.7,112.71,292.59Z"/>
<circle class="cls-10" cx="107.99" cy="321.86" r="9.25"/>
<path class="cls-11" d="M112.53,319.66l-5.44,5.49a.87.87,0,0,1-1,0c-.53-.46-2.75-2.8-2.75-2.8a.85.85,0,0,1,1.13-1,28.07,28.07,0,0,1,2.17,2.14l4.84-4.87C112.07,318.41,112.82,318.77,112.53,319.66Z"/>
</g>
</g>
</svg>